<svg width="414" height="79" viewBox="0 0 414 79" fill="none" xmlns="http://www.w3.org/2000/svg">
<path d="M14.1016 7.42578L6.36719 31H0.136719L10.7031 2.5625H14.668L14.1016 7.42578ZM20.5273 31L12.7734 7.42578L12.1484 2.5625H16.1523L26.7773 31H20.5273ZM20.1758 20.4141V25.0039H5.15625V20.4141H20.1758ZM34.0625 13.9297V39.125H28.4375V9.86719H33.6523L34.0625 13.9297ZM47.4414 20.1992V20.6094C47.4414 22.1458 47.2591 23.5716 46.8945 24.8867C46.543 26.2018 46.0221 27.3477 45.332 28.3242C44.6419 29.2878 43.7826 30.043 42.7539 30.5898C41.7383 31.1237 40.5664 31.3906 39.2383 31.3906C37.9492 31.3906 36.8294 31.1302 35.8789 30.6094C34.9284 30.0885 34.1276 29.3594 33.4766 28.4219C32.8385 27.4714 32.3242 26.3711 31.9336 25.1211C31.543 23.8711 31.2435 22.5299 31.0352 21.0977V20.0234C31.2435 18.487 31.543 17.0807 31.9336 15.8047C32.3242 14.5156 32.8385 13.4023 33.4766 12.4648C34.1276 11.5143 34.9219 10.7786 35.8594 10.2578C36.8099 9.73698 37.9232 9.47656 39.1992 9.47656C40.5404 9.47656 41.7188 9.73047 42.7344 10.2383C43.763 10.7461 44.6224 11.4753 45.3125 12.4258C46.0156 13.3763 46.543 14.5091 46.8945 15.8242C47.2591 17.1393 47.4414 18.5977 47.4414 20.1992ZM41.7969 20.6094V20.1992C41.7969 19.3008 41.7188 18.474 41.5625 17.7188C41.4193 16.9505 41.1849 16.2799 40.8594 15.707C40.5469 15.1341 40.1302 14.6914 39.6094 14.3789C39.1016 14.0534 38.4831 13.8906 37.7539 13.8906C36.9857 13.8906 36.3281 14.0143 35.7812 14.2617C35.2474 14.5091 34.8112 14.8672 34.4727 15.3359C34.1341 15.8047 33.8802 16.3646 33.7109 17.0156C33.5417 17.6667 33.4375 18.4023 33.3984 19.2227V21.9375C33.4635 22.901 33.6458 23.7669 33.9453 24.5352C34.2448 25.2904 34.707 25.8893 35.332 26.332C35.957 26.7747 36.7773 26.9961 37.793 26.9961C38.5352 26.9961 39.1602 26.8333 39.668 26.5078C40.1758 26.1693 40.5859 25.707 40.8984 25.1211C41.224 24.5352 41.4518 23.8581 41.582 23.0898C41.7253 22.3216 41.7969 21.4948 41.7969 20.6094ZM56.5625 13.9297V39.125H50.9375V9.86719H56.1523L56.5625 13.9297ZM69.9414 20.1992V20.6094C69.9414 22.1458 69.7591 23.5716 69.3945 24.8867C69.043 26.2018 68.5221 27.3477 67.832 28.3242C67.1419 29.2878 66.2826 30.043 65.2539 30.5898C64.2383 31.1237 63.0664 31.3906 61.7383 31.3906C60.4492 31.3906 59.3294 31.1302 58.3789 30.6094C57.4284 30.0885 56.6276 29.3594 55.9766 28.4219C55.3385 27.4714 54.8242 26.3711 54.4336 25.1211C54.043 23.8711 53.7435 22.5299 53.5352 21.0977V20.0234C53.7435 18.487 54.043 17.0807 54.4336 15.8047C54.8242 14.5156 55.3385 13.4023 55.9766 12.4648C56.6276 11.5143 57.4219 10.7786 58.3594 10.2578C59.3099 9.73698 60.4232 9.47656 61.6992 9.47656C63.0404 9.47656 64.2188 9.73047 65.2344 10.2383C66.263 10.7461 67.1224 11.4753 67.8125 12.4258C68.5156 13.3763 69.043 14.5091 69.3945 15.8242C69.7591 17.1393 69.9414 18.5977 69.9414 20.1992ZM64.2969 20.6094V20.1992C64.2969 19.3008 64.2188 18.474 64.0625 17.7188C63.9193 16.9505 63.6849 16.2799 63.3594 15.707C63.0469 15.1341 62.6302 14.6914 62.1094 14.3789C61.6016 14.0534 60.9831 13.8906 60.2539 13.8906C59.4857 13.8906 58.8281 14.0143 58.2812 14.2617C57.7474 14.5091 57.3112 14.8672 56.9727 15.3359C56.6341 15.8047 56.3802 16.3646 56.2109 17.0156C56.0417 17.6667 55.9375 18.4023 55.8984 19.2227V21.9375C55.9635 22.901 56.1458 23.7669 56.4453 24.5352C56.7448 25.2904 57.207 25.8893 57.832 26.332C58.457 26.7747 59.2773 26.9961 60.293 26.9961C61.0352 26.9961 61.6602 26.8333 62.168 26.5078C62.6758 26.1693 63.0859 25.707 63.3984 25.1211C63.724 24.5352 63.9518 23.8581 64.082 23.0898C64.2253 22.3216 64.2969 21.4948 64.2969 20.6094ZM79.375 1V31H73.7305V1H79.375ZM89.9609 9.86719V31H84.3164V9.86719H89.9609ZM83.9648 4.35938C83.9648 3.53906 84.2513 2.86198 84.8242 2.32812C85.3971 1.79427 86.1654 1.52734 87.1289 1.52734C88.0794 1.52734 88.8411 1.79427 89.4141 2.32812C90 2.86198 90.293 3.53906 90.293 4.35938C90.293 5.17969 90 5.85677 89.4141 6.39062C88.8411 6.92448 88.0794 7.19141 87.1289 7.19141C86.1654 7.19141 85.3971 6.92448 84.8242 6.39062C84.2513 5.85677 83.9648 5.17969 83.9648 4.35938ZM103.34 26.9961C104.03 26.9961 104.642 26.8659 105.176 26.6055C105.71 26.332 106.126 25.9544 106.426 25.4727C106.738 24.9779 106.901 24.3984 106.914 23.7344H112.207C112.194 25.2188 111.797 26.5404 111.016 27.6992C110.234 28.8451 109.186 29.75 107.871 30.4141C106.556 31.0651 105.085 31.3906 103.457 31.3906C101.816 31.3906 100.384 31.1172 99.1602 30.5703C97.9492 30.0234 96.9401 29.2682 96.1328 28.3047C95.3255 27.3281 94.7201 26.1953 94.3164 24.9062C93.9128 23.6042 93.7109 22.2109 93.7109 20.7266V20.1602C93.7109 18.6628 93.9128 17.2695 94.3164 15.9805C94.7201 14.6784 95.3255 13.5456 96.1328 12.582C96.9401 11.6055 97.9492 10.8438 99.1602 10.2969C100.371 9.75 101.79 9.47656 103.418 9.47656C105.15 9.47656 106.667 9.80859 107.969 10.4727C109.284 11.1367 110.312 12.0872 111.055 13.3242C111.81 14.5482 112.194 16 112.207 17.6797H106.914C106.901 16.9766 106.751 16.3385 106.465 15.7656C106.191 15.1927 105.788 14.737 105.254 14.3984C104.733 14.0469 104.089 13.8711 103.32 13.8711C102.5 13.8711 101.829 14.0469 101.309 14.3984C100.788 14.737 100.384 15.2057 100.098 15.8047C99.8112 16.3906 99.6094 17.0612 99.4922 17.8164C99.388 18.5586 99.3359 19.3398 99.3359 20.1602V20.7266C99.3359 21.5469 99.388 22.3346 99.4922 23.0898C99.5964 23.8451 99.7917 24.5156 100.078 25.1016C100.378 25.6875 100.788 26.1497 101.309 26.4883C101.829 26.8268 102.507 26.9961 103.34 26.9961ZM126.875 26.2344V16.8203C126.875 16.1432 126.764 15.5638 126.543 15.082C126.322 14.5872 125.977 14.2031 125.508 13.9297C125.052 13.6562 124.46 13.5195 123.73 13.5195C123.105 13.5195 122.565 13.6302 122.109 13.8516C121.654 14.0599 121.302 14.3659 121.055 14.7695C120.807 15.1602 120.684 15.6224 120.684 16.1562H115.059C115.059 15.2578 115.267 14.4049 115.684 13.5977C116.1 12.7904 116.706 12.0807 117.5 11.4688C118.294 10.8438 119.238 10.3555 120.332 10.0039C121.439 9.65234 122.676 9.47656 124.043 9.47656C125.684 9.47656 127.142 9.75 128.418 10.2969C129.694 10.8438 130.697 11.6641 131.426 12.7578C132.168 13.8516 132.539 15.2188 132.539 16.8594V25.9023C132.539 27.0612 132.611 28.0117 132.754 28.7539C132.897 29.4831 133.105 30.1211 133.379 30.668V31H127.695C127.422 30.4271 127.214 29.7109 127.07 28.8516C126.94 27.9792 126.875 27.1068 126.875 26.2344ZM127.617 18.1289L127.656 21.3125H124.512C123.77 21.3125 123.125 21.3971 122.578 21.5664C122.031 21.7357 121.582 21.9766 121.23 22.2891C120.879 22.5885 120.618 22.9401 120.449 23.3438C120.293 23.7474 120.215 24.1901 120.215 24.6719C120.215 25.1536 120.326 25.5898 120.547 25.9805C120.768 26.3581 121.087 26.6576 121.504 26.8789C121.921 27.0872 122.409 27.1914 122.969 27.1914C123.815 27.1914 124.551 27.0221 125.176 26.6836C125.801 26.3451 126.283 25.9284 126.621 25.4336C126.973 24.9388 127.155 24.4701 127.168 24.0273L128.652 26.4102C128.444 26.944 128.158 27.4974 127.793 28.0703C127.441 28.6432 126.992 29.1836 126.445 29.6914C125.898 30.1862 125.241 30.5964 124.473 30.9219C123.704 31.2344 122.793 31.3906 121.738 31.3906C120.397 31.3906 119.18 31.1237 118.086 30.5898C117.005 30.043 116.146 29.2943 115.508 28.3438C114.883 27.3802 114.57 26.2865 114.57 25.0625C114.57 23.9557 114.779 22.9727 115.195 22.1133C115.612 21.2539 116.224 20.5312 117.031 19.9453C117.852 19.3464 118.874 18.8971 120.098 18.5977C121.322 18.2852 122.741 18.1289 124.355 18.1289H127.617ZM147.227 9.86719V13.8516H134.922V9.86719H147.227ZM137.969 4.65234H143.594V24.6328C143.594 25.2448 143.672 25.7135 143.828 26.0391C143.997 26.3646 144.245 26.5924 144.57 26.7227C144.896 26.8398 145.306 26.8984 145.801 26.8984C146.152 26.8984 146.465 26.8854 146.738 26.8594C147.025 26.8203 147.266 26.7812 147.461 26.7422L147.48 30.8828C146.999 31.0391 146.478 31.1628 145.918 31.2539C145.358 31.3451 144.74 31.3906 144.062 31.3906C142.826 31.3906 141.745 31.1888 140.82 30.7852C139.909 30.3685 139.206 29.7044 138.711 28.793C138.216 27.8815 137.969 26.6836 137.969 25.1992V4.65234ZM156.367 9.86719V31H150.723V9.86719H156.367ZM150.371 4.35938C150.371 3.53906 150.658 2.86198 151.23 2.32812C151.803 1.79427 152.572 1.52734 153.535 1.52734C154.486 1.52734 155.247 1.79427 155.82 2.32812C156.406 2.86198 156.699 3.53906 156.699 4.35938C156.699 5.17969 156.406 5.85677 155.82 6.39062C155.247 6.92448 154.486 7.19141 153.535 7.19141C152.572 7.19141 151.803 6.92448 151.23 6.39062C150.658 5.85677 150.371 5.17969 150.371 4.35938ZM160.117 20.6484V20.2383C160.117 18.6888 160.339 17.263 160.781 15.9609C161.224 14.6458 161.868 13.5065 162.715 12.543C163.561 11.5794 164.603 10.8307 165.84 10.2969C167.077 9.75 168.496 9.47656 170.098 9.47656C171.699 9.47656 173.125 9.75 174.375 10.2969C175.625 10.8307 176.673 11.5794 177.52 12.543C178.379 13.5065 179.03 14.6458 179.473 15.9609C179.915 17.263 180.137 18.6888 180.137 20.2383V20.6484C180.137 22.1849 179.915 23.6107 179.473 24.9258C179.03 26.2279 178.379 27.3672 177.52 28.3438C176.673 29.3073 175.632 30.056 174.395 30.5898C173.158 31.1237 171.738 31.3906 170.137 31.3906C168.535 31.3906 167.109 31.1237 165.859 30.5898C164.622 30.056 163.574 29.3073 162.715 28.3438C161.868 27.3672 161.224 26.2279 160.781 24.9258C160.339 23.6107 160.117 22.1849 160.117 20.6484ZM165.742 20.2383V20.6484C165.742 21.5339 165.82 22.3607 165.977 23.1289C166.133 23.8971 166.38 24.5742 166.719 25.1602C167.07 25.7331 167.526 26.1823 168.086 26.5078C168.646 26.8333 169.329 26.9961 170.137 26.9961C170.918 26.9961 171.589 26.8333 172.148 26.5078C172.708 26.1823 173.158 25.7331 173.496 25.1602C173.835 24.5742 174.082 23.8971 174.238 23.1289C174.408 22.3607 174.492 21.5339 174.492 20.6484V20.2383C174.492 19.3789 174.408 18.5716 174.238 17.8164C174.082 17.0482 173.828 16.3711 173.477 15.7852C173.138 15.1862 172.689 14.7174 172.129 14.3789C171.569 14.0404 170.892 13.8711 170.098 13.8711C169.303 13.8711 168.626 14.0404 168.066 14.3789C167.52 14.7174 167.07 15.1862 166.719 15.7852C166.38 16.3711 166.133 17.0482 165.977 17.8164C165.82 18.5716 165.742 19.3789 165.742 20.2383ZM189.102 14.3789V31H183.477V9.86719H188.75L189.102 14.3789ZM188.281 19.6914H186.758C186.758 18.1289 186.96 16.7227 187.363 15.4727C187.767 14.2096 188.333 13.1354 189.062 12.25C189.792 11.3516 190.658 10.668 191.66 10.1992C192.676 9.71745 193.809 9.47656 195.059 9.47656C196.048 9.47656 196.953 9.61979 197.773 9.90625C198.594 10.1927 199.297 10.6484 199.883 11.2734C200.482 11.8984 200.938 12.7253 201.25 13.7539C201.576 14.7826 201.738 16.0391 201.738 17.5234V31H196.074V17.5039C196.074 16.5664 195.944 15.8372 195.684 15.3164C195.423 14.7956 195.039 14.431 194.531 14.2227C194.036 14.0013 193.424 13.8906 192.695 13.8906C191.94 13.8906 191.283 14.0404 190.723 14.3398C190.176 14.6393 189.72 15.056 189.355 15.5898C189.004 16.1107 188.737 16.7227 188.555 17.4258C188.372 18.1289 188.281 18.8841 188.281 19.6914ZM228.457 26.3906V1H234.121V31H229.023L228.457 26.3906ZM215.098 20.6875V20.2773C215.098 18.6628 215.28 17.1979 215.645 15.8828C216.009 14.5547 216.543 13.4154 217.246 12.4648C217.949 11.5143 218.815 10.7786 219.844 10.2578C220.872 9.73698 222.044 9.47656 223.359 9.47656C224.596 9.47656 225.677 9.73698 226.602 10.2578C227.539 10.7786 228.333 11.5208 228.984 12.4844C229.648 13.4349 230.182 14.5612 230.586 15.8633C230.99 17.1523 231.283 18.5651 231.465 20.1016V21C231.283 22.4714 230.99 23.8385 230.586 25.1016C230.182 26.3646 229.648 27.4714 228.984 28.4219C228.333 29.3594 227.539 30.0885 226.602 30.6094C225.664 31.1302 224.57 31.3906 223.32 31.3906C222.005 31.3906 220.833 31.1237 219.805 30.5898C218.789 30.056 217.93 29.3073 217.227 28.3438C216.536 27.3802 216.009 26.2474 215.645 24.9453C215.28 23.6432 215.098 22.224 215.098 20.6875ZM220.723 20.2773V20.6875C220.723 21.5599 220.788 22.3737 220.918 23.1289C221.061 23.8841 221.289 24.5547 221.602 25.1406C221.927 25.7135 222.344 26.1628 222.852 26.4883C223.372 26.8008 224.004 26.957 224.746 26.957C225.71 26.957 226.504 26.7422 227.129 26.3125C227.754 25.8698 228.229 25.2643 228.555 24.4961C228.893 23.7279 229.089 22.8424 229.141 21.8398V19.2812C229.102 18.4609 228.984 17.7253 228.789 17.0742C228.607 16.4102 228.333 15.8438 227.969 15.375C227.617 14.9062 227.174 14.5417 226.641 14.2812C226.12 14.0208 225.501 13.8906 224.785 13.8906C224.056 13.8906 223.431 14.0599 222.91 14.3984C222.389 14.724 221.966 15.1732 221.641 15.7461C221.328 16.319 221.094 16.9961 220.938 17.7773C220.794 18.5456 220.723 19.3789 220.723 20.2773ZM248.242 31.3906C246.602 31.3906 245.13 31.1302 243.828 30.6094C242.526 30.0755 241.419 29.3398 240.508 28.4023C239.609 27.4648 238.919 26.3776 238.438 25.1406C237.956 23.8906 237.715 22.5625 237.715 21.1562V20.375C237.715 18.7734 237.943 17.3086 238.398 15.9805C238.854 14.6523 239.505 13.5 240.352 12.5234C241.211 11.5469 242.253 10.7982 243.477 10.2773C244.701 9.74349 246.081 9.47656 247.617 9.47656C249.115 9.47656 250.443 9.72396 251.602 10.2188C252.76 10.7135 253.73 11.4167 254.512 12.3281C255.306 13.2396 255.905 14.3333 256.309 15.6094C256.712 16.8724 256.914 18.2786 256.914 19.8281V22.1719H240.117V18.4219H251.387V17.9922C251.387 17.2109 251.243 16.5143 250.957 15.9023C250.684 15.2773 250.267 14.7826 249.707 14.418C249.147 14.0534 248.431 13.8711 247.559 13.8711C246.816 13.8711 246.178 14.0339 245.645 14.3594C245.111 14.6849 244.674 15.1406 244.336 15.7266C244.01 16.3125 243.763 17.0026 243.594 17.7969C243.438 18.5781 243.359 19.4375 243.359 20.375V21.1562C243.359 22.0026 243.477 22.7839 243.711 23.5C243.958 24.2161 244.303 24.8346 244.746 25.3555C245.202 25.8763 245.749 26.2799 246.387 26.5664C247.038 26.8529 247.773 26.9961 248.594 26.9961C249.609 26.9961 250.553 26.8008 251.426 26.4102C252.311 26.0065 253.073 25.401 253.711 24.5938L256.445 27.5625C256.003 28.2005 255.397 28.8125 254.629 29.3984C253.874 29.9844 252.962 30.4661 251.895 30.8438C250.827 31.2083 249.609 31.3906 248.242 31.3906ZM278.809 26.9961C279.499 26.9961 280.111 26.8659 280.645 26.6055C281.178 26.332 281.595 25.9544 281.895 25.4727C282.207 24.9779 282.37 24.3984 282.383 23.7344H287.676C287.663 25.2188 287.266 26.5404 286.484 27.6992C285.703 28.8451 284.655 29.75 283.34 30.4141C282.025 31.0651 280.553 31.3906 278.926 31.3906C277.285 31.3906 275.853 31.1172 274.629 30.5703C273.418 30.0234 272.409 29.2682 271.602 28.3047C270.794 27.3281 270.189 26.1953 269.785 24.9062C269.382 23.6042 269.18 22.2109 269.18 20.7266V20.1602C269.18 18.6628 269.382 17.2695 269.785 15.9805C270.189 14.6784 270.794 13.5456 271.602 12.582C272.409 11.6055 273.418 10.8438 274.629 10.2969C275.84 9.75 277.259 9.47656 278.887 9.47656C280.618 9.47656 282.135 9.80859 283.438 10.4727C284.753 11.1367 285.781 12.0872 286.523 13.3242C287.279 14.5482 287.663 16 287.676 17.6797H282.383C282.37 16.9766 282.22 16.3385 281.934 15.7656C281.66 15.1927 281.257 14.737 280.723 14.3984C280.202 14.0469 279.557 13.8711 278.789 13.8711C277.969 13.8711 277.298 14.0469 276.777 14.3984C276.257 14.737 275.853 15.2057 275.566 15.8047C275.28 16.3906 275.078 17.0612 274.961 17.8164C274.857 18.5586 274.805 19.3398 274.805 20.1602V20.7266C274.805 21.5469 274.857 22.3346 274.961 23.0898C275.065 23.8451 275.26 24.5156 275.547 25.1016C275.846 25.6875 276.257 26.1497 276.777 26.4883C277.298 26.8268 277.975 26.9961 278.809 26.9961ZM296.562 14.4766V31H290.938V9.86719H296.23L296.562 14.4766ZM302.93 9.73047L302.832 14.9453C302.559 14.9062 302.227 14.8737 301.836 14.8477C301.458 14.8086 301.113 14.7891 300.801 14.7891C300.007 14.7891 299.316 14.8932 298.73 15.1016C298.158 15.2969 297.676 15.5898 297.285 15.9805C296.908 16.3711 296.621 16.8464 296.426 17.4062C296.243 17.9661 296.139 18.6042 296.113 19.3203L294.98 18.9688C294.98 17.6016 295.117 16.3451 295.391 15.1992C295.664 14.0404 296.061 13.0312 296.582 12.1719C297.116 11.3125 297.767 10.6484 298.535 10.1797C299.303 9.71094 300.182 9.47656 301.172 9.47656C301.484 9.47656 301.803 9.5026 302.129 9.55469C302.454 9.59375 302.721 9.65234 302.93 9.73047ZM314.922 31.3906C313.281 31.3906 311.81 31.1302 310.508 30.6094C309.206 30.0755 308.099 29.3398 307.188 28.4023C306.289 27.4648 305.599 26.3776 305.117 25.1406C304.635 23.8906 304.395 22.5625 304.395 21.1562V20.375C304.395 18.7734 304.622 17.3086 305.078 15.9805C305.534 14.6523 306.185 13.5 307.031 12.5234C307.891 11.5469 308.932 10.7982 310.156 10.2773C311.38 9.74349 312.76 9.47656 314.297 9.47656C315.794 9.47656 317.122 9.72396 318.281 10.2188C319.44 10.7135 320.41 11.4167 321.191 12.3281C321.986 13.2396 322.585 14.3333 322.988 15.6094C323.392 16.8724 323.594 18.2786 323.594 19.8281V22.1719H306.797V18.4219H318.066V17.9922C318.066 17.2109 317.923 16.5143 317.637 15.9023C317.363 15.2773 316.947 14.7826 316.387 14.418C315.827 14.0534 315.111 13.8711 314.238 13.8711C313.496 13.8711 312.858 14.0339 312.324 14.3594C311.79 14.6849 311.354 15.1406 311.016 15.7266C310.69 16.3125 310.443 17.0026 310.273 17.7969C310.117 18.5781 310.039 19.4375 310.039 20.375V21.1562C310.039 22.0026 310.156 22.7839 310.391 23.5C310.638 24.2161 310.983 24.8346 311.426 25.3555C311.882 25.8763 312.428 26.2799 313.066 26.5664C313.717 26.8529 314.453 26.9961 315.273 26.9961C316.289 26.9961 317.233 26.8008 318.105 26.4102C318.991 26.0065 319.753 25.401 320.391 24.5938L323.125 27.5625C322.682 28.2005 322.077 28.8125 321.309 29.3984C320.553 29.9844 319.642 30.4661 318.574 30.8438C317.507 31.2083 316.289 31.3906 314.922 31.3906ZM310.957 6.99609L314.785 0.980469H320.898L315.527 6.99609H310.957ZM338.203 26.2344V16.8203C338.203 16.1432 338.092 15.5638 337.871 15.082C337.65 14.5872 337.305 14.2031 336.836 13.9297C336.38 13.6562 335.788 13.5195 335.059 13.5195C334.434 13.5195 333.893 13.6302 333.438 13.8516C332.982 14.0599 332.63 14.3659 332.383 14.7695C332.135 15.1602 332.012 15.6224 332.012 16.1562H326.387C326.387 15.2578 326.595 14.4049 327.012 13.5977C327.428 12.7904 328.034 12.0807 328.828 11.4688C329.622 10.8438 330.566 10.3555 331.66 10.0039C332.767 9.65234 334.004 9.47656 335.371 9.47656C337.012 9.47656 338.47 9.75 339.746 10.2969C341.022 10.8438 342.025 11.6641 342.754 12.7578C343.496 13.8516 343.867 15.2188 343.867 16.8594V25.9023C343.867 27.0612 343.939 28.0117 344.082 28.7539C344.225 29.4831 344.434 30.1211 344.707 30.668V31H339.023C338.75 30.4271 338.542 29.7109 338.398 28.8516C338.268 27.9792 338.203 27.1068 338.203 26.2344ZM338.945 18.1289L338.984 21.3125H335.84C335.098 21.3125 334.453 21.3971 333.906 21.5664C333.359 21.7357 332.91 21.9766 332.559 22.2891C332.207 22.5885 331.947 22.9401 331.777 23.3438C331.621 23.7474 331.543 24.1901 331.543 24.6719C331.543 25.1536 331.654 25.5898 331.875 25.9805C332.096 26.3581 332.415 26.6576 332.832 26.8789C333.249 27.0872 333.737 27.1914 334.297 27.1914C335.143 27.1914 335.879 27.0221 336.504 26.6836C337.129 26.3451 337.611 25.9284 337.949 25.4336C338.301 24.9388 338.483 24.4701 338.496 24.0273L339.98 26.4102C339.772 26.944 339.486 27.4974 339.121 28.0703C338.77 28.6432 338.32 29.1836 337.773 29.6914C337.227 30.1862 336.569 30.5964 335.801 30.9219C335.033 31.2344 334.121 31.3906 333.066 31.3906C331.725 31.3906 330.508 31.1237 329.414 30.5898C328.333 30.043 327.474 29.2943 326.836 28.3438C326.211 27.3802 325.898 26.2865 325.898 25.0625C325.898 23.9557 326.107 22.9727 326.523 22.1133C326.94 21.2539 327.552 20.5312 328.359 19.9453C329.18 19.3464 330.202 18.8971 331.426 18.5977C332.65 18.2852 334.069 18.1289 335.684 18.1289H338.945ZM358.555 9.86719V13.8516H346.25V9.86719H358.555ZM349.297 4.65234H354.922V24.6328C354.922 25.2448 355 25.7135 355.156 26.0391C355.326 26.3646 355.573 26.5924 355.898 26.7227C356.224 26.8398 356.634 26.8984 357.129 26.8984C357.48 26.8984 357.793 26.8854 358.066 26.8594C358.353 26.8203 358.594 26.7812 358.789 26.7422L358.809 30.8828C358.327 31.0391 357.806 31.1628 357.246 31.2539C356.686 31.3451 356.068 31.3906 355.391 31.3906C354.154 31.3906 353.073 31.1888 352.148 30.7852C351.237 30.3685 350.534 29.7044 350.039 28.793C349.544 27.8815 349.297 26.6836 349.297 25.1992V4.65234ZM367.695 9.86719V31H362.051V9.86719H367.695ZM361.699 4.35938C361.699 3.53906 361.986 2.86198 362.559 2.32812C363.132 1.79427 363.9 1.52734 364.863 1.52734C365.814 1.52734 366.576 1.79427 367.148 2.32812C367.734 2.86198 368.027 3.53906 368.027 4.35938C368.027 5.17969 367.734 5.85677 367.148 6.39062C366.576 6.92448 365.814 7.19141 364.863 7.19141C363.9 7.19141 363.132 6.92448 362.559 6.39062C361.986 5.85677 361.699 5.17969 361.699 4.35938ZM371.445 20.6484V20.2383C371.445 18.6888 371.667 17.263 372.109 15.9609C372.552 14.6458 373.197 13.5065 374.043 12.543C374.889 11.5794 375.931 10.8307 377.168 10.2969C378.405 9.75 379.824 9.47656 381.426 9.47656C383.027 9.47656 384.453 9.75 385.703 10.2969C386.953 10.8307 388.001 11.5794 388.848 12.543C389.707 13.5065 390.358 14.6458 390.801 15.9609C391.243 17.263 391.465 18.6888 391.465 20.2383V20.6484C391.465 22.1849 391.243 23.6107 390.801 24.9258C390.358 26.2279 389.707 27.3672 388.848 28.3438C388.001 29.3073 386.96 30.056 385.723 30.5898C384.486 31.1237 383.066 31.3906 381.465 31.3906C379.863 31.3906 378.438 31.1237 377.188 30.5898C375.951 30.056 374.902 29.3073 374.043 28.3438C373.197 27.3672 372.552 26.2279 372.109 24.9258C371.667 23.6107 371.445 22.1849 371.445 20.6484ZM377.07 20.2383V20.6484C377.07 21.5339 377.148 22.3607 377.305 23.1289C377.461 23.8971 377.708 24.5742 378.047 25.1602C378.398 25.7331 378.854 26.1823 379.414 26.5078C379.974 26.8333 380.658 26.9961 381.465 26.9961C382.246 26.9961 382.917 26.8333 383.477 26.5078C384.036 26.1823 384.486 25.7331 384.824 25.1602C385.163 24.5742 385.41 23.8971 385.566 23.1289C385.736 22.3607 385.82 21.5339 385.82 20.6484V20.2383C385.82 19.3789 385.736 18.5716 385.566 17.8164C385.41 17.0482 385.156 16.3711 384.805 15.7852C384.466 15.1862 384.017 14.7174 383.457 14.3789C382.897 14.0404 382.22 13.8711 381.426 13.8711C380.632 13.8711 379.954 14.0404 379.395 14.3789C378.848 14.7174 378.398 15.1862 378.047 15.7852C377.708 16.3711 377.461 17.0482 377.305 17.8164C377.148 18.5716 377.07 19.3789 377.07 20.2383ZM400.43 14.3789V31H394.805V9.86719H400.078L400.43 14.3789ZM399.609 19.6914H398.086C398.086 18.1289 398.288 16.7227 398.691 15.4727C399.095 14.2096 399.661 13.1354 400.391 12.25C401.12 11.3516 401.986 10.668 402.988 10.1992C404.004 9.71745 405.137 9.47656 406.387 9.47656C407.376 9.47656 408.281 9.61979 409.102 9.90625C409.922 10.1927 410.625 10.6484 411.211 11.2734C411.81 11.8984 412.266 12.7253 412.578 13.7539C412.904 14.7826 413.066 16.0391 413.066 17.5234V31H407.402V17.5039C407.402 16.5664 407.272 15.8372 407.012 15.3164C406.751 14.7956 406.367 14.431 405.859 14.2227C405.365 14.0013 404.753 13.8906 404.023 13.8906C403.268 13.8906 402.611 14.0404 402.051 14.3398C401.504 14.6393 401.048 15.056 400.684 15.5898C400.332 16.1107 400.065 16.7227 399.883 17.4258C399.701 18.1289 399.609 18.8841 399.609 19.6914ZM14.668 73.3906V48H20.332V78H15.2344L14.668 73.3906ZM1.30859 67.6875V67.2773C1.30859 65.6628 1.49089 64.1979 1.85547 62.8828C2.22005 61.5547 2.75391 60.4154 3.45703 59.4648C4.16016 58.5143 5.02604 57.7786 6.05469 57.2578C7.08333 56.737 8.25521 56.4766 9.57031 56.4766C10.8073 56.4766 11.888 56.737 12.8125 57.2578C13.75 57.7786 14.5443 58.5208 15.1953 59.4844C15.8594 60.4349 16.3932 61.5612 16.7969 62.8633C17.2005 64.1523 17.4935 65.5651 17.6758 67.1016V68C17.4935 69.4714 17.2005 70.8385 16.7969 72.1016C16.3932 73.3646 15.8594 74.4714 15.1953 75.4219C14.5443 76.3594 13.75 77.0885 12.8125 77.6094C11.875 78.1302 10.7812 78.3906 9.53125 78.3906C8.21615 78.3906 7.04427 78.1237 6.01562 77.5898C5 77.056 4.14062 76.3073 3.4375 75.3438C2.7474 74.3802 2.22005 73.2474 1.85547 71.9453C1.49089 70.6432 1.30859 69.224 1.30859 67.6875ZM6.93359 67.2773V67.6875C6.93359 68.5599 6.9987 69.3737 7.12891 70.1289C7.27214 70.8841 7.5 71.5547 7.8125 72.1406C8.13802 72.7135 8.55469 73.1628 9.0625 73.4883C9.58333 73.8008 10.2148 73.957 10.957 73.957C11.9206 73.957 12.7148 73.7422 13.3398 73.3125C13.9648 72.8698 14.4401 72.2643 14.7656 71.4961C15.1042 70.7279 15.2995 69.8424 15.3516 68.8398V66.2812C15.3125 65.4609 15.1953 64.7253 15 64.0742C14.8177 63.4102 14.5443 62.8438 14.1797 62.375C13.8281 61.9062 13.3854 61.5417 12.8516 61.2812C12.3307 61.0208 11.7122 60.8906 10.9961 60.8906C10.2669 60.8906 9.64193 61.0599 9.12109 61.3984C8.60026 61.724 8.17708 62.1732 7.85156 62.7461C7.53906 63.319 7.30469 63.9961 7.14844 64.7773C7.00521 65.5456 6.93359 66.3789 6.93359 67.2773ZM34.4531 78.3906C32.8125 78.3906 31.3411 78.1302 30.0391 77.6094C28.737 77.0755 27.6302 76.3398 26.7188 75.4023C25.8203 74.4648 25.1302 73.3776 24.6484 72.1406C24.1667 70.8906 23.9258 69.5625 23.9258 68.1562V67.375C23.9258 65.7734 24.1536 64.3086 24.6094 62.9805C25.0651 61.6523 25.7161 60.5 26.5625 59.5234C27.4219 58.5469 28.4635 57.7982 29.6875 57.2773C30.9115 56.7435 32.2917 56.4766 33.8281 56.4766C35.3255 56.4766 36.6536 56.724 37.8125 57.2188C38.9714 57.7135 39.9414 58.4167 40.7227 59.3281C41.5169 60.2396 42.1159 61.3333 42.5195 62.6094C42.9232 63.8724 43.125 65.2786 43.125 66.8281V69.1719H26.3281V65.4219H37.5977V64.9922C37.5977 64.2109 37.4544 63.5143 37.168 62.9023C36.8945 62.2773 36.4779 61.7826 35.918 61.418C35.3581 61.0534 34.6419 60.8711 33.7695 60.8711C33.0273 60.8711 32.3893 61.0339 31.8555 61.3594C31.3216 61.6849 30.8854 62.1406 30.5469 62.7266C30.2214 63.3125 29.974 64.0026 29.8047 64.7969C29.6484 65.5781 29.5703 66.4375 29.5703 67.375V68.1562C29.5703 69.0026 29.6875 69.7839 29.9219 70.5C30.1693 71.2161 30.5143 71.8346 30.957 72.3555C31.4128 72.8763 31.9596 73.2799 32.5977 73.5664C33.2487 73.8529 33.9844 73.9961 34.8047 73.9961C35.8203 73.9961 36.7643 73.8008 37.6367 73.4102C38.5221 73.0065 39.2839 72.401 39.9219 71.5938L42.6562 74.5625C42.2135 75.2005 41.6081 75.8125 40.8398 76.3984C40.0846 76.9844 39.1732 77.4661 38.1055 77.8438C37.0378 78.2083 35.8203 78.3906 34.4531 78.3906ZM68.7695 73.3906V48H74.4336V78H69.3359L68.7695 73.3906ZM55.4102 67.6875V67.2773C55.4102 65.6628 55.5924 64.1979 55.957 62.8828C56.3216 61.5547 56.8555 60.4154 57.5586 59.4648C58.2617 58.5143 59.1276 57.7786 60.1562 57.2578C61.1849 56.737 62.3568 56.4766 63.6719 56.4766C64.9089 56.4766 65.9896 56.737 66.9141 57.2578C67.8516 57.7786 68.6458 58.5208 69.2969 59.4844C69.9609 60.4349 70.4948 61.5612 70.8984 62.8633C71.3021 64.1523 71.5951 65.5651 71.7773 67.1016V68C71.5951 69.4714 71.3021 70.8385 70.8984 72.1016C70.4948 73.3646 69.9609 74.4714 69.2969 75.4219C68.6458 76.3594 67.8516 77.0885 66.9141 77.6094C65.9766 78.1302 64.8828 78.3906 63.6328 78.3906C62.3177 78.3906 61.1458 78.1237 60.1172 77.5898C59.1016 77.056 58.2422 76.3073 57.5391 75.3438C56.849 74.3802 56.3216 73.2474 55.957 71.9453C55.5924 70.6432 55.4102 69.224 55.4102 67.6875ZM61.0352 67.2773V67.6875C61.0352 68.5599 61.1003 69.3737 61.2305 70.1289C61.3737 70.8841 61.6016 71.5547 61.9141 72.1406C62.2396 72.7135 62.6562 73.1628 63.1641 73.4883C63.6849 73.8008 64.3164 73.957 65.0586 73.957C66.0221 73.957 66.8164 73.7422 67.4414 73.3125C68.0664 72.8698 68.5417 72.2643 68.8672 71.4961C69.2057 70.7279 69.401 69.8424 69.4531 68.8398V66.2812C69.4141 65.4609 69.2969 64.7253 69.1016 64.0742C68.9193 63.4102 68.6458 62.8438 68.2812 62.375C67.9297 61.9062 67.487 61.5417 66.9531 61.2812C66.4323 61.0208 65.8138 60.8906 65.0977 60.8906C64.3685 60.8906 63.7435 61.0599 63.2227 61.3984C62.7018 61.724 62.2786 62.1732 61.9531 62.7461C61.6406 63.319 61.4062 63.9961 61.25 64.7773C61.1068 65.5456 61.0352 66.3789 61.0352 67.2773ZM77.9297 67.6484V67.2383C77.9297 65.6888 78.151 64.263 78.5938 62.9609C79.0365 61.6458 79.681 60.5065 80.5273 59.543C81.3737 58.5794 82.4154 57.8307 83.6523 57.2969C84.8893 56.75 86.3086 56.4766 87.9102 56.4766C89.5117 56.4766 90.9375 56.75 92.1875 57.2969C93.4375 57.8307 94.4857 58.5794 95.332 59.543C96.1914 60.5065 96.8424 61.6458 97.2852 62.9609C97.7279 64.263 97.9492 65.6888 97.9492 67.2383V67.6484C97.9492 69.1849 97.7279 70.6107 97.2852 71.9258C96.8424 73.2279 96.1914 74.3672 95.332 75.3438C94.4857 76.3073 93.444 77.056 92.207 77.5898C90.9701 78.1237 89.5508 78.3906 87.9492 78.3906C86.3477 78.3906 84.9219 78.1237 83.6719 77.5898C82.4349 77.056 81.3867 76.3073 80.5273 75.3438C79.681 74.3672 79.0365 73.2279 78.5938 71.9258C78.151 70.6107 77.9297 69.1849 77.9297 67.6484ZM83.5547 67.2383V67.6484C83.5547 68.5339 83.6328 69.3607 83.7891 70.1289C83.9453 70.8971 84.1927 71.5742 84.5312 72.1602C84.8828 72.7331 85.3385 73.1823 85.8984 73.5078C86.4583 73.8333 87.1419 73.9961 87.9492 73.9961C88.7305 73.9961 89.401 73.8333 89.9609 73.5078C90.5208 73.1823 90.9701 72.7331 91.3086 72.1602C91.6471 71.5742 91.8945 70.8971 92.0508 70.1289C92.2201 69.3607 92.3047 68.5339 92.3047 67.6484V67.2383C92.3047 66.3789 92.2201 65.5716 92.0508 64.8164C91.8945 64.0482 91.6406 63.3711 91.2891 62.7852C90.9505 62.1862 90.5013 61.7174 89.9414 61.3789C89.3815 61.0404 88.7044 60.8711 87.9102 60.8711C87.1159 60.8711 86.4388 61.0404 85.8789 61.3789C85.332 61.7174 84.8828 62.1862 84.5312 62.7852C84.1927 63.3711 83.9453 64.0482 83.7891 64.8164C83.6328 65.5716 83.5547 66.3789 83.5547 67.2383ZM110.137 73.9961C110.827 73.9961 111.439 73.8659 111.973 73.6055C112.507 73.332 112.923 72.9544 113.223 72.4727C113.535 71.9779 113.698 71.3984 113.711 70.7344H119.004C118.991 72.2188 118.594 73.5404 117.812 74.6992C117.031 75.8451 115.983 76.75 114.668 77.4141C113.353 78.0651 111.882 78.3906 110.254 78.3906C108.613 78.3906 107.181 78.1172 105.957 77.5703C104.746 77.0234 103.737 76.2682 102.93 75.3047C102.122 74.3281 101.517 73.1953 101.113 71.9062C100.71 70.6042 100.508 69.2109 100.508 67.7266V67.1602C100.508 65.6628 100.71 64.2695 101.113 62.9805C101.517 61.6784 102.122 60.5456 102.93 59.582C103.737 58.6055 104.746 57.8438 105.957 57.2969C107.168 56.75 108.587 56.4766 110.215 56.4766C111.947 56.4766 113.464 56.8086 114.766 57.4727C116.081 58.1367 117.109 59.0872 117.852 60.3242C118.607 61.5482 118.991 63 119.004 64.6797H113.711C113.698 63.9766 113.548 63.3385 113.262 62.7656C112.988 62.1927 112.585 61.737 112.051 61.3984C111.53 61.0469 110.885 60.8711 110.117 60.8711C109.297 60.8711 108.626 61.0469 108.105 61.3984C107.585 61.737 107.181 62.2057 106.895 62.8047C106.608 63.3906 106.406 64.0612 106.289 64.8164C106.185 65.5586 106.133 66.3398 106.133 67.1602V67.7266C106.133 68.5469 106.185 69.3346 106.289 70.0898C106.393 70.8451 106.589 71.5156 106.875 72.1016C107.174 72.6875 107.585 73.1497 108.105 73.4883C108.626 73.8268 109.303 73.9961 110.137 73.9961ZM134.766 72.9414V56.8672H140.391V78H135.098L134.766 72.9414ZM135.391 68.6055L137.051 68.5664C137.051 69.9727 136.888 71.2812 136.562 72.4922C136.237 73.6901 135.749 74.7318 135.098 75.6172C134.447 76.4896 133.626 77.1732 132.637 77.668C131.647 78.1497 130.482 78.3906 129.141 78.3906C128.112 78.3906 127.161 78.2474 126.289 77.9609C125.43 77.6615 124.688 77.1992 124.062 76.5742C123.451 75.9362 122.969 75.1224 122.617 74.1328C122.279 73.1302 122.109 71.9258 122.109 70.5195V56.8672H127.734V70.5586C127.734 71.1836 127.806 71.7109 127.949 72.1406C128.105 72.5703 128.32 72.9219 128.594 73.1953C128.867 73.4688 129.186 73.6641 129.551 73.7812C129.928 73.8984 130.345 73.957 130.801 73.957C131.96 73.957 132.871 73.7227 133.535 73.2539C134.212 72.7852 134.688 72.1471 134.961 71.3398C135.247 70.5195 135.391 69.6081 135.391 68.6055ZM150.312 61.2422V78H144.668V56.8672H149.961L150.312 61.2422ZM149.531 66.6914H147.969C147.969 65.2201 148.145 63.8659 148.496 62.6289C148.861 61.3789 149.388 60.2982 150.078 59.3867C150.781 58.4622 151.647 57.7461 152.676 57.2383C153.704 56.7305 154.896 56.4766 156.25 56.4766C157.188 56.4766 158.047 56.6198 158.828 56.9062C159.609 57.1797 160.28 57.6159 160.84 58.2148C161.413 58.8008 161.855 59.569 162.168 60.5195C162.48 61.457 162.637 62.5833 162.637 63.8984V78H157.012V64.5234C157.012 63.5599 156.882 62.8177 156.621 62.2969C156.361 61.776 155.99 61.4115 155.508 61.2031C155.039 60.9948 154.473 60.8906 153.809 60.8906C153.079 60.8906 152.441 61.0404 151.895 61.3398C151.361 61.6393 150.918 62.056 150.566 62.5898C150.215 63.1107 149.954 63.7227 149.785 64.4258C149.616 65.1289 149.531 65.8841 149.531 66.6914ZM162.109 66.0469L160.098 66.3008C160.098 64.9206 160.267 63.638 160.605 62.4531C160.957 61.2682 161.471 60.2266 162.148 59.3281C162.839 58.4297 163.691 57.7331 164.707 57.2383C165.723 56.7305 166.895 56.4766 168.223 56.4766C169.238 56.4766 170.163 56.6263 170.996 56.9258C171.829 57.2122 172.539 57.6745 173.125 58.3125C173.724 58.9375 174.18 59.7578 174.492 60.7734C174.818 61.7891 174.98 63.0326 174.98 64.5039V78H169.336V64.5039C169.336 63.5273 169.206 62.7852 168.945 62.2773C168.698 61.7565 168.333 61.3984 167.852 61.2031C167.383 60.9948 166.823 60.8906 166.172 60.8906C165.495 60.8906 164.902 61.0273 164.395 61.3008C163.887 61.5612 163.464 61.9258 163.125 62.3945C162.786 62.8633 162.533 63.4102 162.363 64.0352C162.194 64.6471 162.109 65.3177 162.109 66.0469ZM189.062 78.3906C187.422 78.3906 185.951 78.1302 184.648 77.6094C183.346 77.0755 182.24 76.3398 181.328 75.4023C180.43 74.4648 179.74 73.3776 179.258 72.1406C178.776 70.8906 178.535 69.5625 178.535 68.1562V67.375C178.535 65.7734 178.763 64.3086 179.219 62.9805C179.674 61.6523 180.326 60.5 181.172 59.5234C182.031 58.5469 183.073 57.7982 184.297 57.2773C185.521 56.7435 186.901 56.4766 188.438 56.4766C189.935 56.4766 191.263 56.724 192.422 57.2188C193.581 57.7135 194.551 58.4167 195.332 59.3281C196.126 60.2396 196.725 61.3333 197.129 62.6094C197.533 63.8724 197.734 65.2786 197.734 66.8281V69.1719H180.938V65.4219H192.207V64.9922C192.207 64.2109 192.064 63.5143 191.777 62.9023C191.504 62.2773 191.087 61.7826 190.527 61.418C189.967 61.0534 189.251 60.8711 188.379 60.8711C187.637 60.8711 186.999 61.0339 186.465 61.3594C185.931 61.6849 185.495 62.1406 185.156 62.7266C184.831 63.3125 184.583 64.0026 184.414 64.7969C184.258 65.5781 184.18 66.4375 184.18 67.375V68.1562C184.18 69.0026 184.297 69.7839 184.531 70.5C184.779 71.2161 185.124 71.8346 185.566 72.3555C186.022 72.8763 186.569 73.2799 187.207 73.5664C187.858 73.8529 188.594 73.9961 189.414 73.9961C190.43 73.9961 191.374 73.8008 192.246 73.4102C193.132 73.0065 193.893 72.401 194.531 71.5938L197.266 74.5625C196.823 75.2005 196.217 75.8125 195.449 76.3984C194.694 76.9844 193.783 77.4661 192.715 77.8438C191.647 78.2083 190.43 78.3906 189.062 78.3906ZM206.445 61.3789V78H200.82V56.8672H206.094L206.445 61.3789ZM205.625 66.6914H204.102C204.102 65.1289 204.303 63.7227 204.707 62.4727C205.111 61.2096 205.677 60.1354 206.406 59.25C207.135 58.3516 208.001 57.668 209.004 57.1992C210.02 56.7174 211.152 56.4766 212.402 56.4766C213.392 56.4766 214.297 56.6198 215.117 56.9062C215.938 57.1927 216.641 57.6484 217.227 58.2734C217.826 58.8984 218.281 59.7253 218.594 60.7539C218.919 61.7826 219.082 63.0391 219.082 64.5234V78H213.418V64.5039C213.418 63.5664 213.288 62.8372 213.027 62.3164C212.767 61.7956 212.383 61.431 211.875 61.2227C211.38 61.0013 210.768 60.8906 210.039 60.8906C209.284 60.8906 208.626 61.0404 208.066 61.3398C207.52 61.6393 207.064 62.056 206.699 62.5898C206.348 63.1107 206.081 63.7227 205.898 64.4258C205.716 65.1289 205.625 65.8841 205.625 66.6914ZM233.711 56.8672V60.8516H221.406V56.8672H233.711ZM224.453 51.6523H230.078V71.6328C230.078 72.2448 230.156 72.7135 230.312 73.0391C230.482 73.3646 230.729 73.5924 231.055 73.7227C231.38 73.8398 231.79 73.8984 232.285 73.8984C232.637 73.8984 232.949 73.8854 233.223 73.8594C233.509 73.8203 233.75 73.7812 233.945 73.7422L233.965 77.8828C233.483 78.0391 232.962 78.1628 232.402 78.2539C231.842 78.3451 231.224 78.3906 230.547 78.3906C229.31 78.3906 228.229 78.1888 227.305 77.7852C226.393 77.3685 225.69 76.7044 225.195 75.793C224.701 74.8815 224.453 73.6836 224.453 72.1992V51.6523ZM248.34 72.1602C248.34 71.7565 248.223 71.3919 247.988 71.0664C247.754 70.7409 247.318 70.4414 246.68 70.168C246.055 69.8815 245.15 69.6211 243.965 69.3867C242.897 69.1523 241.901 68.8594 240.977 68.5078C240.065 68.1432 239.271 67.707 238.594 67.1992C237.93 66.6914 237.409 66.0924 237.031 65.4023C236.654 64.6992 236.465 63.8984 236.465 63C236.465 62.1146 236.654 61.2812 237.031 60.5C237.422 59.7188 237.975 59.0286 238.691 58.4297C239.421 57.8177 240.306 57.3424 241.348 57.0039C242.402 56.6523 243.587 56.4766 244.902 56.4766C246.738 56.4766 248.314 56.7695 249.629 57.3555C250.957 57.9414 251.973 58.7487 252.676 59.7773C253.392 60.793 253.75 61.9518 253.75 63.2539H248.125C248.125 62.707 248.008 62.2188 247.773 61.7891C247.552 61.3464 247.201 61.0013 246.719 60.7539C246.25 60.4935 245.638 60.3633 244.883 60.3633C244.258 60.3633 243.717 60.474 243.262 60.6953C242.806 60.9036 242.454 61.1901 242.207 61.5547C241.973 61.9062 241.855 62.2969 241.855 62.7266C241.855 63.0521 241.921 63.3451 242.051 63.6055C242.194 63.8529 242.422 64.0807 242.734 64.2891C243.047 64.4974 243.451 64.6927 243.945 64.875C244.453 65.0443 245.078 65.2005 245.82 65.3438C247.344 65.6562 248.704 66.0664 249.902 66.5742C251.1 67.069 252.051 67.7461 252.754 68.6055C253.457 69.4518 253.809 70.5651 253.809 71.9453C253.809 72.8828 253.6 73.7422 253.184 74.5234C252.767 75.3047 252.168 75.9883 251.387 76.5742C250.605 77.1471 249.668 77.5964 248.574 77.9219C247.493 78.2344 246.276 78.3906 244.922 78.3906C242.956 78.3906 241.289 78.0391 239.922 77.3359C238.568 76.6328 237.539 75.7409 236.836 74.6602C236.146 73.5664 235.801 72.4466 235.801 71.3008H241.133C241.159 72.069 241.354 72.6875 241.719 73.1562C242.096 73.625 242.572 73.9635 243.145 74.1719C243.73 74.3802 244.362 74.4844 245.039 74.4844C245.768 74.4844 246.374 74.3867 246.855 74.1914C247.337 73.9831 247.702 73.7096 247.949 73.3711C248.21 73.0195 248.34 72.6159 248.34 72.1602ZM257.734 75.2852C257.734 74.4518 258.021 73.7552 258.594 73.1953C259.18 72.6354 259.954 72.3555 260.918 72.3555C261.882 72.3555 262.65 72.6354 263.223 73.1953C263.809 73.7552 264.102 74.4518 264.102 75.2852C264.102 76.1185 263.809 76.8151 263.223 77.375C262.65 77.9349 261.882 78.2148 260.918 78.2148C259.954 78.2148 259.18 77.9349 258.594 77.375C258.021 76.8151 257.734 76.1185 257.734 75.2852Z" fill="white"/>
</svg>
